<svg width="42" height="42" viewBox="0 0 42 42" fill="none" xmlns="http://www.w3.org/2000/svg">
<path d="M21.0063 6.47219e-05C15.4375 0.00564454 10.0984 2.21935 6.16026 6.15548C2.22215 10.0916 0.00671177 15.4287 1.1939e-05 20.9958C-0.00420619 24.9597 1.10938 28.8223 3.21 32.1663L3.70774 32.959L1.58603 40.7054L9.53719 38.6223L10.3007 39.0777C13.5381 40.9933 17.2316 42.0027 20.9936 42H20.9978C26.5648 41.9922 31.9016 39.7782 35.8384 35.8434C39.7752 31.9085 41.9909 26.5738 41.9999 21.0085C42.0095 18.2499 41.4717 15.5168 40.4174 12.9675C39.3632 10.4181 37.8136 8.10319 35.8583 6.15668C33.9131 4.19941 31.5988 2.64743 29.0494 1.59062C26.5 0.533815 23.7661 -0.00680849 21.0063 6.47219e-05ZM33.3569 30.0157C32.8297 31.4916 30.3072 32.8325 29.0966 33.0139C27.7695 33.2426 26.4072 33.1574 25.1189 32.7651C23.8968 32.3867 22.6957 31.9433 21.5209 31.4368C15.1853 28.7042 11.0515 22.3326 10.7309 21.9067C10.4188 21.485 8.15786 18.4826 8.15786 15.379C8.15786 12.2711 9.78606 10.7446 10.3639 10.1121C10.5761 9.87242 10.8355 9.67906 11.1258 9.54411C11.4161 9.40916 11.7311 9.33551 12.0512 9.32776C12.473 9.32776 12.8906 9.33198 13.2618 9.34884C13.6499 9.36571 14.1687 9.20125 14.6791 10.4326C15.2063 11.6976 16.4718 14.8012 16.6279 15.1175C16.7839 15.4296 16.8894 15.8006 16.6827 16.2223C16.4718 16.6482 16.3706 16.9055 16.05 17.2765C15.7378 17.6476 15.3877 18.0988 15.1051 18.3856C14.7888 18.6976 14.4597 19.0392 14.8267 19.6717C15.1979 20.3 16.4633 22.3705 18.3362 24.0446C20.749 26.1952 22.7863 26.8573 23.4148 27.1777C24.0475 27.4898 24.4145 27.4434 24.7857 27.0175C25.1527 26.5916 26.3633 25.1747 26.7851 24.5464C27.2069 23.9139 27.6245 24.0193 28.2066 24.2259C28.7845 24.441 31.889 25.9633 32.5175 26.2795C33.1418 26.5916 33.5678 26.7518 33.7281 27.0175C33.88 27.2789 33.88 28.5398 33.3569 30.0157Z" fill="#E9BD8C"/>
</svg>
