<svg width="42" height="42" viewBox="0 0 42 42" fill="none" xmlns="http://www.w3.org/2000/svg">
<path d="M41.8647 12.3965C41.8412 10.633 41.5105 8.88705 40.8875 7.23672C40.3472 5.84468 39.522 4.58046 38.4646 3.52483C37.4072 2.4692 36.1409 1.64538 34.7466 1.106C33.1147 0.494456 31.3908 0.163784 29.6482 0.128063C27.4045 0.0279412 26.6931 0 20.9977 0C15.3022 0 14.5722 1.56133e-07 12.3448 0.128063C10.603 0.164047 8.87987 0.494715 7.24878 1.106C5.8542 1.645 4.58768 2.46869 3.53024 3.52437C2.47281 4.58005 1.64774 5.84447 1.10784 7.23672C0.494053 8.8646 0.163548 10.5852 0.130609 12.3243C0.0303198 14.5666 0 15.2768 0 20.9627C0 26.6487 -1.7377e-08 27.3752 0.130609 29.6012C0.165593 31.3428 0.494447 33.0612 1.10784 34.6934C1.64865 36.0853 2.47432 37.3492 3.53211 38.4044C4.5899 39.4596 5.85655 40.283 7.25111 40.8218C8.87773 41.4579 10.6012 41.8123 12.3472 41.8696C14.5932 41.9697 15.3045 42 21 42C26.6955 42 27.4255 42 29.6528 41.8696C31.3954 41.8354 33.1195 41.5055 34.7512 40.894C36.1452 40.354 37.4112 39.53 38.4685 38.4744C39.5258 37.4189 40.3513 36.155 40.8922 34.7633C41.5056 33.1334 41.8344 31.415 41.8694 29.671C41.9697 27.4311 42 26.7209 42 21.0326C41.9953 15.3466 41.9953 14.6248 41.8647 12.3965ZM20.9837 31.7154C15.027 31.7154 10.2015 26.8979 10.2015 20.9511C10.2015 15.0043 15.027 10.1868 20.9837 10.1868C23.8433 10.1868 26.5858 11.3209 28.6078 13.3396C30.6299 15.3583 31.7659 18.0962 31.7659 20.9511C31.7659 23.806 30.6299 26.5439 28.6078 28.5626C26.5858 30.5813 23.8433 31.7154 20.9837 31.7154ZM32.195 12.2987C31.8648 12.299 31.5377 12.2343 31.2325 12.1083C30.9273 11.9822 30.6501 11.7974 30.4165 11.5642C30.183 11.3311 29.9978 11.0542 29.8716 10.7496C29.7453 10.4449 29.6805 10.1184 29.6808 9.78867C29.6808 9.4592 29.7458 9.13296 29.8721 8.82857C29.9984 8.52418 30.1835 8.2476 30.4169 8.01463C30.6502 7.78166 30.9273 7.59686 31.2322 7.47078C31.5371 7.34469 31.8638 7.2798 32.1939 7.2798C32.5239 7.2798 32.8507 7.34469 33.1556 7.47078C33.4605 7.59686 33.7375 7.78166 33.9709 8.01463C34.2042 8.2476 34.3893 8.52418 34.5156 8.82857C34.6419 9.13296 34.7069 9.4592 34.7069 9.78867C34.7069 11.1764 33.5827 12.2987 32.195 12.2987Z" fill="#E9BD8C"/>
<path d="M20.9834 27.9435C24.8515 27.9435 27.9873 24.8129 27.9873 20.9512C27.9873 17.0895 24.8515 13.959 20.9834 13.959C17.1152 13.959 13.9795 17.0895 13.9795 20.9512C13.9795 24.8129 17.1152 27.9435 20.9834 27.9435Z" fill="#E9BD8C"/>
</svg>
